Coordinates
version=1
nRows=10
nColumns=40
inDegrees=yes

Units are S.I. units (second, meters, Newtons, ...)
Angles are in degrees.

endheader
time	pelvis_tilt	pelvis_list	pelvis_rotation	pelvis_tx	pelvis_ty	pelvis_tz	hip_flexion_r	hip_adduction_r	hip_rotation_r	knee_angle_r	knee_angle_r_beta	ankle_angle_r	subtalar_angle_r	mtp_angle_r	hip_flexion_l	hip_adduction_l	hip_rotation_l	knee_angle_l	knee_angle_l_beta	ankle_angle_l	subtalar_angle_l	mtp_angle_l	lumbar_extension	lumbar_bending	lumbar_rotation	arm_flex_r	arm_add_r	arm_rot_r	elbow_flex_r	pro_sup_r	wrist_flex_r	wrist_dev_r	arm_flex_l	arm_add_l	arm_rot_l	elbow_flex_l	pro_sup_l	wrist_flex_l	wrist_dev_l
     15.52000000	     -4.47262072	     -5.66520685	      0.73695788	      0.94017271	      0.91909008	      0.44187615	     19.51900878	     -7.06941146	     -8.57232376	     55.79913354	     55.79913354	      2.02862683	    -16.58925987	     -6.04182201	     20.17443216	     -4.80294993	     -3.87089045	     31.77296106	     31.77296106	     18.37310948	    -17.94152088	      8.57576667	    -11.04038795	      5.64982811	      3.60246977	     13.61939303	    -14.08245374	    -10.79108956	     32.15252693	     45.90561894	      0.00000000	      0.00000000	     14.69567399	    -19.17029275	     -7.86867340	     57.20184116	     46.44354490	      0.00000000	      0.00000000
     15.53921429	     -4.58163802	     -5.78901027	      0.17281721	      0.93805259	      0.91812544	      0.44091345	     21.30410265	     -7.08974421	     -8.41739243	     57.94865414	     57.94865414	      1.27635882	    -17.19144026	     -5.77522151	     20.18606973	     -4.98929015	     -4.19468537	     32.27883075	     32.27883075	     18.95882506	    -18.08917325	      8.85604417	    -11.09804411	      5.81092889	      3.29891509	     11.35930470	    -13.74449012	    -10.75284427	     30.57662323	     45.95436708	      0.00000000	      0.00000000	     15.30735708	    -19.37984611	     -8.08054316	     57.61190761	     46.48263945	      0.00000000	      0.00000000
     15.55842857	     -4.61176808	     -5.96825755	     -0.47221646	      0.93591247	      0.91747750	      0.44015121	     22.95491618	     -6.89480432	     -8.14466880	     59.80534631	     59.80534631	      0.83110162	    -17.72070575	     -4.66806367	     19.98704729	     -5.28264391	     -4.64861427	     32.61218960	     32.61218960	     19.62320928	    -18.07375575	      9.08512541	    -11.30415543	      5.98777715	      3.20585143	      9.09003015	    -13.51098652	    -10.78665641	     29.09039534	     46.00520821	      0.00000000	      0.00000000	     15.92029656	    -19.51991627	     -8.26087620	     58.55946005	     46.52725616	      0.00000000	      0.00000000
     15.57764286	     -4.61039483	     -6.19371388	     -1.09819205	      0.93370808	      0.91727091	      0.43956933	     24.58581172	     -6.51047807	     -7.86562166	     61.52316896	     61.52316896	      2.16138963	    -17.43289190	      1.18464326	     19.70109816	     -5.61848772	     -5.09371681	     32.85558168	     32.85558168	     20.44258917	    -17.99327887	     10.14030076	    -11.62207251	      6.23986071	      2.78655707	      7.30815470	    -13.12863768	    -11.49113191	     27.10060389	     46.15359906	      0.00000000	      0.00000000	     15.83786363	    -20.05152001	     -8.25425230	     60.63379658	     46.62527490	      0.00000000	      0.00000000
     15.59685714	     -4.71698299	     -6.31458361	     -1.77322829	      0.93145798	      0.91730147	      0.43906342	     25.99786146	     -6.28177105	     -7.77356523	     62.29891650	     62.29891650	      1.95994163	    -17.68804266	      1.51570464	     19.32509690	     -5.84692927	     -5.66322473	     32.69827685	     32.69827685	     20.72550547	    -17.99576912	     10.06996375	    -11.79702790	      6.39335554	      2.57519921	      5.15766908	    -12.99353033	    -11.58674838	     26.15953261	     46.18573328	      0.00000000	      0.00000000	     16.30084576	    -20.21861324	     -8.49143063	     61.42677914	     46.66620783	      0.00000000	      0.00000000
     15.61607143	     -4.82952534	     -6.49961363	     -2.49717149	      0.92920600	      0.91782626	      0.43885618	     27.23664428	     -5.86911733	     -7.72957371	     62.44093778	     62.44093778	      2.27763375	    -17.69757390	      2.69609241	     18.83693620	     -6.15848096	     -6.26642866	     32.33641170	     32.33641170	     20.89354173	    -17.93798680	      9.89871750	    -12.04062718	      6.59796935	      2.77015887	      2.98912591	    -13.02115616	    -11.95420450	     25.32781320	     46.24191198	      0.00000000	      0.00000000	     16.62989468	    -20.07071822	     -8.62262668	     63.34926077	     46.72820895	      0.00000000	      0.00000000
     15.63528571	     -5.09169087	     -6.57768127	     -3.26364750	      0.92686990	      0.91867663	      0.43894105	     28.50783336	     -5.46697658	     -7.68010932	     61.98874494	     61.98874494	      2.97513451	    -17.51850153	      4.34000494	     18.31176399	     -6.37239519	     -7.03547255	     31.57572056	     31.57572056	     20.73559182	    -17.88383332	      9.39563995	    -12.12289041	      6.69618347	      2.41869426	      1.16076956	    -12.91448583	    -12.89841527	     25.21720170	     46.32871744	      0.00000000	      0.00000000	     16.25463337	    -20.36608710	     -8.75765006	     65.73522044	     46.82663460	      0.00000000	      0.00000000
     15.65450000	     -5.38750766	     -6.62827667	     -4.06856559	      0.92452597	      0.92006760	      0.43928365	     29.52611662	     -5.04056125	     -7.74853335	     60.66538032	     60.66538032	      3.34435503	    -17.33363100	      4.35040424	     17.67190473	     -6.53274106	     -7.80541131	     30.53683501	     30.53683501	     20.62405940	    -17.77637509	      9.39999419	    -12.15517823	      6.77507051	      2.49544243	     -0.54688716	    -13.03012282	    -13.15462627	     24.70571075	     46.36301026	      0.00000000	      0.00000000	     16.52890656	    -20.13585336	     -8.89896335	     67.07024707	     46.87512513	      0.00000000	      0.00000000
     15.67371429	     -5.77181338	     -6.67693459	     -4.91022150	      0.92216120	      0.92168972	      0.43997794	     30.41205630	     -4.52584203	     -7.88602669	     58.60227972	     58.60227972	      3.59175982	    -17.08327796	      3.62560628	     16.96817471	     -6.70942209	     -8.69363911	     29.18334448	     29.18334448	     20.09500758	    -17.67107717	      8.63323150	    -12.15315265	      6.83524291	      2.30424141	     -2.18237098	    -13.09500359	    -13.99205882	     25.31149390	     46.40465247	      0.00000000	      0.00000000	     16.06191638	    -20.15235734	     -9.04747987	     69.69282379	     46.97521476	      0.00000000	      0.00000000
     15.69292857	     -6.33402310	     -6.72528048	     -5.76344275	      0.91970228	      0.92338245	      0.44101396	     31.29095553	     -3.90608233	     -8.07042655	     55.90019192	     55.90019192	      4.09126338	    -16.51189374	      3.55662932	     16.43127891	     -6.88553065	     -9.51609122	     27.78394163	     27.78394163	     19.88594760	    -17.41576267	      8.88183232	    -11.85156181	      6.92130505	      2.11533093	     -3.31543783	    -13.28700054	    -14.10148269	     25.04338452	     46.41668164	      0.00000000	      0.00000000	     16.17657541	    -19.99192729	     -9.06469175	     70.42533281	     46.99315627	      0.00000000	      0.00000000
